<mxfile host="app.diagrams.net" modified="2023-10-17T07:11:44.148Z" agent="Mozilla/5.0 (Macintosh; Intel Mac OS X 10_15_7) AppleWebKit/537.36 (KHTML, like Gecko) Chrome/117.0.0.0 Safari/537.36" version="21.7.2" etag="893Y5sOG3cQkADjRaps8" type="github">
  <diagram name="Page-1" id="b5c7aztyqT4D3_MfnT8D">
    <mxGraphModel>
      <root>
        <mxCell id="0" />
        <mxCell id="1" parent="0" />
      </root>
    </mxGraphModel>
  </diagram>
</mxfile>
